<svg width="183" height="119" viewBox="0 0 183 119" fill="none" xmlns="http://www.w3.org/2000/svg">
<path d="M2.66667 2.66796C0.133333 5.2013 0 7.06796 0 59.3346C0 111.601 0.133333 113.468 2.66667 116.001C5.33333 118.668 7.06667 118.668 91.3333 118.668C175.6 118.668 177.333 118.668 180 116.001C182.533 113.468 182.667 111.601 182.667 59.3346C182.667 7.06796 182.533 5.2013 180 2.66796C177.333 0.00129589 175.6 0.00129589 91.3333 0.00129589C7.06667 0.00129589 5.33333 0.00129589 2.66667 2.66796ZM75.4667 19.3346C84.4 23.3346 92.6667 31.7346 97.2 41.2013C102.133 51.868 102.133 66.8013 97.2 77.468C83.4667 106.801 45.0667 112.535 24.1333 88.5346C8.93333 71.3346 9.46667 45.068 25.0667 28.9346C30.4 23.3346 39.7333 18.0013 47.6 16.0013C54.9333 14.268 67.6 15.7346 75.4667 19.3346ZM168.933 33.7346C168.267 36.0013 115.733 36.0013 115.067 33.7346C114.267 31.468 116.667 31.3346 144.267 31.7346C163.333 32.0013 169.333 32.5346 168.933 33.7346ZM169.333 59.3346C169.333 61.068 165.467 61.3346 142.8 61.3346C118.667 61.3346 113.067 60.668 115.6 58.1346C116 57.7346 128.4 57.3346 142.933 57.3346C165.467 57.3346 169.333 57.6013 169.333 59.3346ZM168.667 84.1346C169.2 84.9346 169.333 85.7346 169.067 86.0013C168.267 86.8013 115.867 86.9346 115.067 86.1346C114.667 85.868 114.8 84.9346 115.333 84.1346C116.533 82.1346 167.467 82.1346 168.667 84.1346Z" fill="black"/>
<path d="M47.0654 25.6013C40.6654 28.668 40.5321 39.3346 46.5321 47.868C48.1321 50.0013 49.3321 52.1346 49.3321 52.5346C49.3321 54.5346 43.9987 52.9346 38.1321 49.2013C34.5321 47.068 30.6654 45.3346 29.5987 45.6013C28.3987 45.868 25.9987 48.0013 24.3987 50.5346C19.1987 58.268 20.7987 70.1346 27.5987 73.2013C32.3987 75.468 35.0654 75.068 43.0654 70.8013C47.1987 68.668 50.7987 67.2013 51.1987 67.6013C52.1321 68.5346 49.8654 73.868 45.9987 79.868C43.0654 84.1346 42.6654 85.6013 43.8654 87.868C46.3987 92.5346 50.9321 94.668 58.3987 94.668C64.2654 94.668 65.9987 94.0013 68.9321 91.2013C71.7321 88.4013 72.2654 86.9346 71.7321 82.1346C71.3321 79.068 69.4654 74.0013 67.3321 70.8013L63.7321 64.9346L67.8654 65.7346C70.1321 66.268 74.2654 68.1346 77.1987 70.1346C83.8654 74.5346 86.9321 73.6013 90.5321 66.1346C93.8654 59.468 93.9987 57.468 91.3321 51.3346C87.9987 43.068 78.5321 42.0013 68.7987 48.668C66.1321 50.5346 63.5987 52.0013 63.3321 52.0013C61.4654 52.0013 63.1987 46.4013 66.6654 40.9346C68.9321 37.468 70.6654 33.7346 70.6654 32.8013C70.6654 31.7346 68.7987 29.3346 66.5321 27.468C63.3321 24.8013 61.0654 24.0013 56.2654 24.1346C52.7987 24.1346 48.6654 24.8013 47.0654 25.6013ZM60.5321 55.468C61.7321 56.5346 62.6654 58.4013 62.6654 59.3346C62.6654 61.3346 59.0654 65.3346 57.1987 65.3346C54.9321 65.3346 50.5321 59.868 51.4654 58.268C54.6654 52.8013 57.1987 52.0013 60.5321 55.468Z" fill="black"/>
</svg>
