<svg width="160" height="123" viewBox="0 0 160 123" fill="none" xmlns="http://www.w3.org/2000/svg">
<path d="M98.2344 0C100.874 0 103.514 0 106.234 0C109.223 5.1363 110.833 8.89433 110.234 15C109.904 15.99 109.574 16.98 109.234 18C110.67 18.5056 112.108 19.0043 113.547 19.5C114.347 19.7784 115.148 20.0569 115.973 20.3438C118.322 21.1393 118.322 21.1393 121.234 21C121.998 20.2369 122.761 19.4737 123.547 18.6875C126.355 15.8797 128.528 14.39 132.234 13C136.909 13.2831 138.903 15.2306 142.047 18.5625C142.837 19.3888 143.627 20.2151 144.441 21.0664C145.033 21.7045 145.625 22.3426 146.234 23C143.464 33.9985 143.464 33.9985 139.234 37C138.574 37 137.914 37 137.234 37C137.523 37.7709 137.812 38.5417 138.109 39.3359C138.481 40.3388 138.852 41.3417 139.234 42.375C139.606 43.3727 139.977 44.3705 140.359 45.3984C141.234 48 141.234 48 141.234 50C141.894 49.67 142.554 49.34 143.234 49C149.876 48.4274 153.464 49.7025 159.234 53C159.234 57.95 159.234 62.9 159.234 68C152.773 71.5898 148.622 73.684 141.234 73C138.88 77.6421 138.88 77.6421 138.297 82.6875C139.106 85.1155 139.106 85.1155 141.109 86.875C143.881 89.6465 144.982 92.3087 146.234 96C145.897 99.9457 143.724 102.037 141.047 104.812C140.29 105.623 139.534 106.434 138.754 107.27C136.234 109 136.234 109 133.137 108.875C128.897 107.597 125.249 105.849 123.062 101.863C122.789 101.248 122.516 100.634 122.234 100C121.619 100.205 121.005 100.41 120.371 100.621C116.992 101.747 113.613 102.874 110.234 104C110.317 105.134 110.399 106.269 110.484 107.438C110.521 112.565 108.557 116.521 106.234 121C103.594 121 100.954 121 98.2344 121C98.2344 107.14 98.2344 93.28 98.2344 79C101.204 78.01 104.174 77.02 107.234 76C111.698 73.283 113.989 70.0496 115.234 65C115.89 59.9567 115.844 56.2189 113.547 51.625C108.47 45.8625 106.199 44.9911 98.2344 43C98.2344 28.81 98.2344 14.62 98.2344 0Z" fill="#030303"/>
<path d="M55.4883 0.902344C57.0154 0.904466 57.0156 0.905062 58.5732 0.907227C61.8339 0.912836 65.0949 0.924795 68.3555 0.9375C70.5625 0.942514 72.7695 0.947077 74.9766 0.951172C80.3946 0.962214 85.8125 0.978961 91.2305 1V9C89.9843 9.01458 88.738 9.0299 87.4541 9.04492C82.8227 9.10298 78.1916 9.17972 73.5605 9.2627C71.5578 9.29591 69.5547 9.32395 67.5518 9.34668C64.6695 9.38029 61.7881 9.43236 58.9062 9.48828C58.0134 9.49467 57.1201 9.50123 56.2002 9.50781C51.4785 9.61901 47.9155 9.72163 44.2305 13C42.6637 15.6819 42.6635 15.6824 41.5898 18.8398L40.2852 22.3105L38.9805 25.9375L37.6289 29.5527C35.9721 34.0185 34.3865 38.3759 33.2305 43H92.2305V101H33.2305V117C27.5957 122.635 27.5957 122.635 23.3242 122.664L20.5703 122.684L17.7305 122.625L14.8906 122.684L12.1367 122.664C11.3149 122.658 10.4932 122.653 9.64648 122.647C5.79817 121.617 4.51518 120.287 2.23047 117C1.49662 112.982 1.55389 109.02 1.60156 104.945C1.59915 103.771 1.59721 102.596 1.59473 101.386C1.59571 98.9028 1.60887 96.4194 1.63379 93.9365C1.66803 90.1459 1.65422 86.3571 1.63477 82.5664C1.64167 80.1512 1.65134 77.7355 1.66406 75.3203C1.6591 74.1911 1.65452 73.0619 1.64941 71.8984C1.76902 63.8588 3.00359 59.3717 8.66797 53.4531L11.2305 51.25L13.793 49.0156C15.8969 47.2758 18.0275 45.6115 20.2305 44L17.3438 43.9219L13.543 43.75L9.78125 43.6094C5.77964 42.9226 4.08979 41.8222 1.23047 39C0.116158 36.7713 0.0656649 35.4693 0.0429688 33L0 30.875C0.230424 29.0004 0.230599 28.9999 2.23047 27C4.32173 26.7412 4.3218 26.7412 6.87891 26.7344L9.67578 26.7266L12.6055 26.75L15.5117 26.7266L18.3164 26.7344L20.8809 26.7412C23.406 27.0193 25.0479 27.7321 27.2305 29C27.4309 28.4309 27.6314 27.8617 27.8379 27.2754C28.7774 24.6533 29.7535 22.0459 30.7305 19.4375L31.6836 16.7246C34.7799 8.59689 40.3025 0.861095 49.6807 0.886719C51.0614 0.886832 51.0618 0.886603 52.4707 0.886719C53.9643 0.89446 53.9644 0.894446 55.4883 0.902344ZM33.2354 61.001C26.4879 60.0316 22.9678 61.2779 19.2354 67.001C18.9454 70.422 18.6852 72.9006 20.2354 76.001C22.7759 78.6654 24.5355 80.7353 28.2354 81.3135C32.3754 81.0626 34.0433 80.169 37.2354 77.376C39.5271 73.5087 39.7452 71.4198 39.2354 67.001C37.7448 64.0199 36.0454 62.7946 33.2354 61.001Z" fill="#040404"/>
</svg>
