<svg width="171" height="158" viewBox="0 0 171 158" fill="none" xmlns="http://www.w3.org/2000/svg">
<path d="M126.979 46C137.592 75.0784 137.592 88.6483 126.001 113.85" stroke="black" stroke-width="2" stroke-linecap="round"/>
<path d="M167.589 44.5859C169.246 44.5861 170.589 45.9292 170.589 47.5859V111.374C170.589 113.031 169.246 114.374 167.589 114.374H139.741C137.728 114.374 136.269 112.434 136.796 110.49C138.659 103.623 142.221 89.0694 142.122 78.5615C142.029 68.683 138.633 55.0745 136.816 48.4805C136.279 46.5345 137.738 44.5859 139.757 44.5859H167.589ZM154.111 93.0498C150.363 93.05 147.326 96.0879 147.326 99.835C147.326 103.582 150.363 106.62 154.111 106.62C157.858 106.62 160.896 103.582 160.896 99.835C160.896 96.0877 157.858 93.0498 154.111 93.0498ZM154.111 54.2783C150.364 54.2785 147.326 57.3165 147.326 61.0635C147.326 64.8106 150.363 67.8484 154.111 67.8486C157.858 67.8486 160.896 64.8107 160.896 61.0635C160.896 57.3163 157.858 54.2783 154.111 54.2783Z" fill="black"/>
<circle cx="154.119" cy="99.8375" r="2.90784" fill="black"/>
<circle cx="154.119" cy="61.0641" r="2.90784" fill="black"/>
<path d="M78.5166 62.0312C87.617 62.0313 94.9941 69.4084 94.9941 78.5088C94.9941 87.6092 87.617 94.9863 78.5166 94.9863C69.4162 94.9863 62.0391 87.6092 62.0391 78.5088C62.0391 69.4084 69.4162 62.0312 78.5166 62.0312ZM78.5166 69.7852C73.6987 69.7852 69.793 73.6909 69.793 78.5088C69.793 83.3267 73.6987 87.2324 78.5166 87.2324C83.3345 87.2324 87.2402 83.3267 87.2402 78.5088C87.2402 73.6909 83.3345 69.7852 78.5166 69.7852Z" fill="black"/>
<path d="M78.5117 0C108.951 0 135.345 17.3231 148.372 42.6484H137.823C135.805 42.6484 134.346 44.5967 134.884 46.542C136.786 53.417 140.447 67.9748 140.546 78.5117C140.651 89.7122 136.814 105.266 134.865 112.425C134.336 114.368 135.793 116.313 137.807 116.313H147.34C133.984 140.58 108.168 157.023 78.5117 157.023C35.1509 157.023 0 121.873 0 78.5117C0 35.1509 35.1509 0 78.5117 0ZM98.8369 140.425C98.1194 138.048 95.6114 136.703 93.2344 137.42C90.8572 138.137 89.511 140.646 90.2285 143.023C90.9462 145.4 93.4551 146.746 95.832 146.028C98.2091 145.311 99.5543 142.802 98.8369 140.425ZM46.6807 133.494C44.4363 132.432 41.7557 133.39 40.6934 135.634C39.6311 137.878 40.5898 140.559 42.834 141.621C45.0782 142.683 47.7589 141.726 48.8213 139.481C49.8836 137.237 48.9251 134.556 46.6807 133.494ZM95.2041 128.37C94.4866 125.993 91.9786 124.648 89.6016 125.365C87.2244 126.083 85.8781 128.592 86.5957 130.969C87.3133 133.346 89.8223 134.691 92.1992 133.974C94.5763 133.256 95.9215 130.747 95.2041 128.37ZM52.0713 122.115C49.827 121.053 47.1463 122.011 46.084 124.255C45.0217 126.499 45.9804 129.18 48.2246 130.242C50.4689 131.304 53.1495 130.347 54.2119 128.103C55.2742 125.858 54.3157 123.178 52.0713 122.115ZM78.5117 35.3008C54.6471 35.3008 35.3008 54.6471 35.3008 78.5117C35.3008 102.376 54.6471 121.723 78.5117 121.723C102.376 121.723 121.723 102.376 121.723 78.5117C121.723 54.6471 102.376 35.3008 78.5117 35.3008ZM128.844 44.8467C128.452 43.8144 127.297 43.2948 126.265 43.6865C125.232 44.0784 124.713 45.2339 125.104 46.2666C130.405 60.2344 132.967 70.6204 132.848 80.5479C132.729 90.4529 129.938 100.097 124.185 112.568C123.722 113.571 124.159 114.76 125.162 115.223C126.165 115.685 127.354 115.247 127.816 114.244C133.689 101.515 136.719 91.2875 136.848 80.5957C136.976 69.9263 134.21 58.9872 128.844 44.8467ZM16.9111 98.0215C15.4588 96.0075 12.6488 95.5527 10.6348 97.0049C8.62069 98.4572 8.16487 101.267 9.61719 103.281C11.0695 105.295 13.8795 105.75 15.8936 104.298C17.9076 102.846 18.3634 100.036 16.9111 98.0215ZM27.5283 90.6621C26.076 88.6482 23.266 88.1933 21.252 89.6455C19.2379 91.0978 18.7821 93.9078 20.2344 95.9219C21.6867 97.9359 24.4967 98.3908 26.5107 96.9385C28.5248 95.4861 28.9806 92.6762 27.5283 90.6621ZM30.5732 46.1328C28.1715 45.5026 25.7133 46.9381 25.083 49.3398C24.4528 51.7416 25.8892 54.1999 28.291 54.8301C30.6927 55.4602 33.151 54.0238 33.7812 51.6221C34.4113 49.2205 32.9748 46.7631 30.5732 46.1328ZM18.1436 42.6289C15.7418 41.9987 13.2836 43.4342 12.6533 45.8359C12.0231 48.2377 13.4595 50.696 15.8613 51.3262C18.263 51.9563 20.7214 50.5199 21.3516 48.1182C21.9816 45.7166 20.5451 43.2592 18.1436 42.6289ZM113.389 30.5703C111.318 29.201 108.529 29.7698 107.159 31.8408C105.79 33.9121 106.358 36.7017 108.43 38.0713C110.501 39.4405 113.29 38.8716 114.659 36.8008C116.029 34.7295 115.46 31.9399 113.389 30.5703ZM73.6982 23.0068C73.2642 20.5621 70.931 18.9324 68.4863 19.3662C66.0416 19.8002 64.4109 22.1334 64.8447 24.5781C65.2787 27.023 67.6128 28.6537 70.0576 28.2197C72.5025 27.7857 74.1323 25.4517 73.6982 23.0068ZM120.717 19.9219C118.646 18.5525 115.857 19.1214 114.487 21.1924C113.118 23.2636 113.687 26.0533 115.758 27.4229C117.829 28.792 120.618 28.2232 121.987 26.1523C123.357 24.0811 122.788 21.2914 120.717 19.9219ZM71.667 10.2412C71.233 7.79648 68.8998 6.16682 66.4551 6.60059C64.0103 7.03458 62.3797 9.36777 62.8135 11.8125C63.2475 14.2574 65.5815 15.8881 68.0264 15.4541C70.4712 15.0201 72.101 12.6861 71.667 10.2412Z" fill="black"/>
<path d="M67.8516 48.2268C74.5369 45.7344 78.9837 46.1992 85.2986 48.2268" stroke="black" stroke-width="2"/>
<path d="M87.2344 106.859C80.549 109.352 76.1023 108.887 69.7873 106.859" stroke="black" stroke-width="2"/>
<path d="M108.558 69.7891C111.051 76.4744 110.586 80.9212 108.558 87.2361" stroke="black" stroke-width="2"/>
<path d="M46.5276 87.2344C44.0352 80.549 44.5 76.1023 46.5276 69.7873" stroke="black" stroke-width="2"/>
</svg>
