<svg width="182" height="196" viewBox="0 0 182 196" fill="none" xmlns="http://www.w3.org/2000/svg">
<path d="M83.0015 3.87468C82.3014 2.28601 81.5205 0.805039 81.2782 0.589625C80.6858 0.0510912 79.4741 -0.137395 78.4239 0.131872C73.0117 1.58591 69.1073 2.68991 68.4341 3.01303C66.7647 3.82083 66.6839 4.70941 67.6802 12.0604C68.0302 14.6723 68.0841 15.9648 67.8956 16.5033C67.7071 17.0688 66.8724 17.6881 64.1528 19.196C62.2141 20.273 60.4908 21.1616 60.3023 21.1616C60.0061 21.1616 58.3097 19.9499 52.8974 15.8301C51.3088 14.6184 50.9049 14.4299 49.8278 14.4299H48.5622L44.0385 18.9536C38.0877 24.9044 38.1147 24.2313 43.4192 30.9899C45.1425 33.1978 46.2465 34.8404 46.2465 35.2173C46.2465 35.5674 45.8157 36.5637 45.2772 37.4253C44.7656 38.3139 43.9847 39.6872 43.5539 40.5219C42.2345 43.1607 42.2614 43.1338 38.0877 42.5953C36.149 42.3529 33.8872 42.0029 33.0794 41.8682C30.8445 41.4913 29.4981 41.5721 28.5557 42.1644C27.6133 42.7299 27.344 43.43 25.3783 50.6194C24.3282 54.4969 24.3013 54.7661 24.759 55.7624C25.136 56.5971 25.9977 57.0549 31.4369 59.3975C33.591 60.313 35.5297 61.2555 35.799 61.4709C36.149 61.794 36.2837 62.6287 36.4183 65.6176L36.6337 69.3604H47.0274H57.448L57.475 65.6445C57.5019 60.4207 58.6328 55.6009 60.9485 51.0233C66.8724 39.2294 78.3432 31.9323 90.891 31.9323C103.385 31.9323 114.856 39.1486 120.807 50.781C123.553 56.0855 124.442 59.8014 124.442 65.7522V69.8451L125.849 69.8451C127.867 70.3025 143.699 69.8457 145.668 70.1406L145.672 70.1382C145.613 69.312 145.625 68.1705 145.66 66.5331C145.741 62.0902 145.741 62.0363 146.441 61.4439C146.818 61.1208 149.214 59.963 151.745 58.8859C154.303 57.7819 156.619 56.6241 156.969 56.2471C157.858 55.3047 157.723 54.3084 156.107 48.8961C154.438 43.2684 154.115 42.5414 153.119 42.0298C152.068 41.4643 150.884 41.5182 145.956 42.2991C140.678 43.1338 140.194 43.1338 139.494 42.3529C138.74 41.5182 135.374 35.5943 135.374 35.0827C135.374 34.8673 136.37 33.4133 137.555 31.9054C140.436 28.2433 141.998 26.0084 142.213 25.2814C142.321 24.9583 142.24 24.2851 142.025 23.8004C141.54 22.6426 133.543 14.9685 132.331 14.4838C131.012 13.9453 130.231 14.3761 125.707 18.0381C123.58 19.7614 121.641 21.1616 121.399 21.1616C120.78 21.1616 115.179 18.0112 114.317 17.1765C113.348 16.2879 113.348 15.4532 114.236 9.69085C115.26 3.17459 115.448 3.41693 107.909 1.39743C101.958 -0.218176 101.769 -0.245099 100.746 0.374215C100.073 0.805042 99.5614 1.72055 97.8381 5.75955C96.6802 8.42529 95.5224 10.8218 95.28 11.0372C94.9031 11.3872 94.0683 11.468 90.891 11.468C87.202 11.468 86.9597 11.4411 86.4212 10.8487C85.8557 10.2563 85.3172 9.15231 83.0015 3.87468Z" fill="black"/>
<path d="M41.9274 72.6635C35.6534 73.7405 30.4566 77.3487 27.1715 82.8956C26.6061 83.865 24.5327 88.1463 22.5671 92.4546C20.6283 96.7359 17.3971 103.764 15.4315 108.045L11.8502 115.827L10.1 116.769C6.27642 118.789 2.72209 122.693 1.34883 126.355C0.0563508 129.802 -0.0782826 131.875 0.0294241 145.204C0.164058 158.775 0.190984 159.071 1.86044 162.491C4.0415 166.988 8.67289 170.946 12.9812 172.05L14.1929 172.346L14.3006 178.97C14.4083 185.109 14.4621 185.729 15.0276 187.156C16.4278 190.764 19.2282 193.753 22.3247 194.964C23.6441 195.503 24.425 195.557 29.9719 195.665C34.0648 195.745 36.7036 195.665 37.7806 195.449C41.3888 194.749 44.7008 192.137 46.3972 188.664C47.6897 185.998 47.9589 183.951 47.7974 178.216C47.7166 175.631 47.7166 173.235 47.7974 172.885L47.9589 172.292H91.284H134.609V178.189C134.609 181.42 134.744 184.705 134.878 185.513C135.525 188.825 137.84 192.164 140.883 194.13C143.091 195.557 144.787 195.772 152.569 195.665C158.412 195.584 159.112 195.503 160.459 194.964C163.959 193.564 166.356 191.114 167.81 187.452L168.644 185.352L168.752 178.674C168.833 173.45 168.941 172.023 169.21 172.023C169.398 172.023 170.691 171.457 172.064 170.757C175.645 168.98 178.257 166.341 179.927 162.841C181.946 158.64 182 158.183 182 144.046C182 130.098 181.919 129.263 180.142 125.574C177.719 120.458 173.114 116.796 167.567 115.531L165.44 115.046L164.094 112.353C163.367 110.899 160.701 105.272 158.197 99.8594C149.311 80.6338 148.88 79.8798 145.299 77.0794C143.226 75.4638 139.967 73.7944 137.436 73.0135C135.902 72.5827 133.182 72.5288 89.5068 72.5019C64.0342 72.475 42.6274 72.5558 41.9274 72.6635ZM132.347 82.6533C136.117 83.1649 138.675 84.4843 140.21 86.7192C140.641 87.3654 142.633 91.4583 144.653 95.8204C146.645 100.183 149.392 106.106 150.738 108.961C152.084 111.842 153.188 114.292 153.188 114.427C153.188 114.561 127.231 114.669 88.699 114.669C53.2366 114.669 24.2096 114.615 24.2096 114.534C24.2096 114.373 25.906 110.603 29.4064 102.956C37.0806 86.2345 37.1613 86.046 39.504 84.5651C43.0044 82.3032 40.581 82.4109 88.2143 82.384C116.891 82.3571 130.92 82.4379 132.347 82.6533ZM31.2105 130.556C38.6423 131.714 43.9469 139.253 42.439 146.577C41.8466 149.485 40.6618 151.747 38.7769 153.659C36.0304 156.459 32.9338 157.752 29.0025 157.752C25.2597 157.752 21.7862 156.352 19.282 153.821C13.6813 148.22 13.6543 139.98 19.2012 134.433C21.3284 132.306 23.1595 131.283 25.8521 130.717C27.9793 130.233 28.9756 130.206 31.2105 130.556ZM157.362 131.121C160.539 132.198 163.555 134.756 165.144 137.799C167.163 141.73 167.163 146.335 165.09 150.455C164.201 152.286 161.32 155.221 159.489 156.19C156.689 157.698 152.327 158.21 149.257 157.375C144.222 156.028 139.967 151.262 139.187 146.039C138.567 141.973 140.075 137.53 143.091 134.433C146.726 130.717 152.246 129.452 157.362 131.121ZM124.565 139.926C125.023 140.249 125.669 141.084 125.992 141.73C126.531 142.834 126.558 143.104 126.262 144.235C125.939 145.608 125.239 146.523 123.973 147.197C123.246 147.627 120.526 147.654 93.8151 147.735C77.686 147.789 63.0917 147.708 61.4223 147.574C58.4603 147.331 58.3526 147.304 57.4371 146.416C55.7677 144.773 55.5792 142.457 56.9794 140.761C58.3796 139.092 56.4139 139.172 91.5263 139.253L123.704 139.307L124.565 139.926Z" fill="black"/>
</svg>
