<svg width="156" height="179" viewBox="0 0 156 179" fill="none" xmlns="http://www.w3.org/2000/svg">
<path d="M32.8848 0.218818C27.0837 0.631339 24.3928 2.14392 22.261 6.23475C21.8067 7.16292 20.3739 10.4975 19.1158 13.6945C16.39 20.5011 14.0835 25.9326 10.9733 32.808C7.9329 39.4427 7.02428 41.1615 4.12371 45.8367C2.76079 48.0368 1.29303 50.512 0.83872 51.3714L0 52.9183L0.10484 68.3879C0.174733 80.6947 0.31452 84.0293 0.698934 84.7168C2.06185 87.1576 3.91403 88.1545 8.42215 88.8076C11.9168 89.3233 144.574 89.392 147.685 88.8764C152.472 88.1201 154.709 86.6419 155.513 83.7886C156.037 81.9667 156.037 54.7403 155.513 52.9183C155.303 52.1621 154.045 49.8244 152.717 47.6931C148.209 40.4396 143.945 31.5704 137.306 15.6196C133.217 5.82222 133.112 5.58159 131.539 3.65649C130.176 2.00641 128.604 1.11262 126.018 0.528212C124.061 0.0813146 38.9306 -0.228079 32.8848 0.218818ZM124.131 10.3943C124.725 11.0131 137.375 39.5458 137.375 40.2677C137.375 40.5427 135.314 40.6802 129.547 40.7146L121.684 40.749L115.533 43.8945C112.178 39.0474 112.297 40.9639 106.251 43.5077C104.749 44.1609 103.476 39.7693 102.428 41.3162L98.0604 40.7146H58.0464C36.03 40.7146 18.0674 40.6115 18.1024 40.4396C18.2072 39.9239 29.7746 13.7633 30.7181 11.8382L31.6966 9.94743L69.5788 9.77555C118.399 9.56929 123.397 9.60367 124.131 10.3943ZM114.747 44.539C116.424 45.3297 121.954 40.129 121.954 40.7478C121.954 40.9197 114.87 40.7146 109.768 40.7146C104.84 40.7146 98.0604 40.8865 98.0604 40.7146C98.4964 41.4451 104.918 44.0234 107.015 43.5077C108.972 42.9921 112.929 43.6796 114.747 44.539ZM35.9951 57.2154C39.8742 57.8686 42.8796 59.8968 44.2774 62.8876C46.6888 67.941 43.1592 73.6475 36.7639 75.0913C31.3472 76.3289 25.3363 73.7506 23.4143 69.3504C21.1777 64.1595 25.0917 58.3155 31.5219 57.2498C32.5703 57.0779 33.4789 56.9404 33.5838 56.906C33.6886 56.906 34.7719 57.0435 35.9951 57.2154ZM132.902 57.7655C134.999 58.4186 137.795 60.8594 138.773 62.922C139.717 64.8127 139.822 68.1129 139.018 70.0036C138.144 72.0318 135.873 74.1975 133.426 75.2632C126.262 78.4602 117.805 73.8194 117.805 66.669C117.805 59.7249 125.249 55.3591 132.902 57.7655Z" fill="black"/>
<path d="M71.9145 91.8336C71.7747 91.9367 71.6698 108.953 71.6698 129.648V167.222H42.8388H14.0078V169.284V178.996H82.633H150.649V169.284V167.222L120.875 167.153L91.0653 167.05L90.9604 129.304L90.8905 91.5929H81.5248C76.3527 91.5929 72.0193 91.6961 71.9145 91.8336Z" fill="black"/>
<path d="M9.36404 92.5221C9.04952 92.8314 9.08446 107.51 9.43393 111.532C9.95813 118.133 10.727 118.58 21.176 118.545C31.7649 118.511 31.5552 118.786 31.7649 107.098C31.8348 102.869 31.7998 97.8161 31.66 95.8566L31.4154 92.2814H20.512C14.5012 92.2814 9.46888 92.3845 9.36404 92.5221Z" fill="black"/>
<path d="M124.445 101.457C124.48 110.738 124.795 114.657 125.633 116.273C126.542 118.026 127.451 118.198 135.488 118.336C144.05 118.473 144.854 118.301 145.972 116.136C146.567 114.898 146.636 113.832 146.741 103.691L146.846 92.6219H135.663H124.445V101.457Z" fill="black"/>
</svg>
